<?xml version="1.0" encoding="utf-8"?>
<!-- Generator: Adobe Illustrator 26.2.1, SVG Export Plug-In . SVG Version: 6.00 Build 0)  -->
<svg version="1.1" id="Layer_1" xmlns="http://www.w3.org/2000/svg" xmlns:xlink="http://www.w3.org/1999/xlink" x="0px" y="0px"
	 viewBox="0 0 512 512" style="enable-background:new 0 0 512 512;" xml:space="preserve">
<style type="text/css">
	.st0{fill:#FFFFFF;}
</style>
<path class="st0" d="M343.3,206.1c-71.9,0-71.8,71.8-71.8,71.8s-4.9,71.5,71.8,71.5c0,0,64,3.7,64-49.7h-32.9c0,0,1.1,20.1-30,20.1
	c0,0-32.9,2.2-32.9-32.5h96.9C408.4,287.3,419,206.2,343.3,206.1z M372.6,262.4h-61.4c0,0,4-28.8,32.9-28.8
	C373,233.6,372.6,262.4,372.6,262.4z M229.2,244c0,0,28.5-2.1,28.5-35.6s-23.3-49.8-52.9-49.8h-97.2v187h97.2
	c0,0,59.4,1.8,59.4-55.2C264.2,290.4,266.8,244,229.2,244z M150.4,191.9h54.4c0,0,13.2,0,13.2,19.4c0,19.4-7.8,22.3-16.6,22.3h-51
	V191.9z M202.1,312.4h-51.7v-50h54.4c0,0,19.7-0.3,19.7,25.7C224.5,310,209.9,312.2,202.1,312.4z M303.2,169.6v23h77.1v-23H303.2z"
	/>
</svg>
